<svg xmlns="http://www.w3.org/2000/svg" xmlns:xlink="http://www.w3.org/1999/xlink" viewBox="0,0,256,256" width="50px" height="50px" fill-rule="nonzero"><g fill="#ffffff" fill-rule="nonzero" stroke="none" stroke-width="1" stroke-linecap="butt" stroke-linejoin="miter" stroke-miterlimit="10" stroke-dasharray="" stroke-dashoffset="0" font-family="none" font-weight="none" font-size="none" text-anchor="none" style="mix-blend-mode: normal"><g transform="scale(5.12,5.12)"><path d="M42.46289,3l-34.9668,0.0332c-2.47086,0.00128 -4.49866,2.03323 -4.49609,4.50391l0.0332,34.9668c0.00257,2.47058 2.03323,4.49866 4.50391,4.49609l34.9668,-0.0332c2.47086,-0.00129 4.49866,-2.03323 4.49609,-4.50391l-0.0332,-34.9668c-0.00257,-2.47058 -2.03323,-4.49866 -4.50391,-4.49609zM42.46484,5c1.37933,-0.00143 2.50052,1.11863 2.50195,2.49805l0.0332,34.9668c0.0014,1.37933 -1.11891,2.50124 -2.49805,2.50195l-34.9668,0.0332c-1.37933,0.00143 -2.50052,-1.11863 -2.50195,-2.49805l-0.0332,-34.9668c-0.00143,-1.37933 1.11891,-2.50124 2.49805,-2.50195zM24.25781,15.76172c-1.509,0 -2.86914,1.28414 -2.86914,2.86914v6.51953c0,1.295 -1.06075,2.3418 -2.34375,2.3418c-0.759,0 -1.51389,-0.38053 -1.96289,-1.01953l-7.40625,-10.58398c-0.167,-0.24 -0.54297,-0.12012 -0.54297,0.17188v5.6543c0,0.286 0.08795,0.56188 0.25195,0.79688l7.29102,10.41406c0.431,0.615 1.06583,1.07033 1.79883,1.23633c1.834,0.417 3.52148,-0.99397 3.52148,-2.79297v-6.51758c0,-1.295 1.0507,-2.3418 2.3457,-2.3418h0.00391c0.78,0 1.51098,0.38053 1.95898,1.01953l6.62305,9.45508c0.551,0.786 1.39816,1.25195 2.41016,1.25195c1.543,0 2.86328,-1.28419 2.86328,-2.86719v-6.51953c0,-1.295 1.0507,-2.3418 2.3457,-2.3418h0.25781c0.162,0 0.29297,-0.13097 0.29297,-0.29297v-6.15625c0,-0.162 -0.13097,-0.29297 -0.29297,-0.29297h-0.00195h-0.30664c-1.603,-0.003 -2.90234,1.29544 -2.90234,2.89844v6.48438c0,1.295 -1.0717,2.3418 -2.3457,2.3418c-0.757,0 -1.51098,-0.38053 -1.95898,-1.01953l-6.62109,-9.45508c-0.549,-0.785 -1.44216,-1.25391 -2.41016,-1.25391z"></path></g></g></svg>